{
  "accessors": [
    {
      "bufferView": 0,
      "componentType": 5125,
      "count": 17619,
      "type": "SCALAR"
    },
    {
      "bufferView": 1,
      "componentType": 5126,
      "count": 5422,
      "max": [
        0.494940042495728,
        0.942982077598572,
        0.315036088228226
      ],
      "min": [
        -0.494940042495728,
        -1.00000011920929,
        -0.408632695674896
      ],
      "type": "VEC3"
    },
    {
      "bufferView": 2,
      "componentType": 5126,
      "count": 5422,
      "type": "VEC3"
    },
    {
      "bufferView": 3,
      "componentType": 5126,
      "count": 5422,
      "type": "VEC2"
    },
    {
      "bufferView": 4,
      "componentType": 5125,
      "count": 912,
      "type": "SCALAR"
    },
    {
      "bufferView": 5,
      "componentType": 5126,
      "count": 182,
      "max": [
        0.389071404933929,
        0.99999988079071,
        0.408632665872574
      ],
      "min": [
        -0.388792753219604,
        0.248885631561279,
        -0.379793733358383
      ],
      "type": "VEC3"
    },
    {
      "bufferView": 6,
      "componentType": 5126,
      "count": 182,
      "type": "VEC3"
    },
    {
      "bufferView": 7,
      "componentType": 5126,
      "count": 182,
      "type": "VEC2"
    }
  ],
  "asset": {
    "generator": "Substance Painter 2018.3.3",
    "version": "2.0"
  },
  "bufferViews": [
    {
      "buffer": 0,
      "byteLength": 70476,
      "target": 34963
    },
    {
      "buffer": 0,
      "byteLength": 65064,
      "byteOffset": 70476,
      "target": 34962
    },
    {
      "buffer": 0,
      "byteLength": 65064,
      "byteOffset": 135540,
      "target": 34962
    },
    {
      "buffer": 0,
      "byteLength": 43376,
      "byteOffset": 200604,
      "target": 34962
    },
    {
      "buffer": 0,
      "byteLength": 3648,
      "byteOffset": 243980,
      "target": 34963
    },
    {
      "buffer": 0,
      "byteLength": 2184,
      "byteOffset": 247628,
      "target": 34962
    },
    {
      "buffer": 0,
      "byteLength": 2184,
      "byteOffset": 249812,
      "target": 34962
    },
    {
      "buffer": 0,
      "byteLength": 1456,
      "byteOffset": 251996,
      "target": 34962
    }
  ],
  "buffers": [
    {
      "byteLength": 253452,
      "uri": "cocosfinish.bin"
    }
  ],
  "images": [
    {
      "uri": "cocosfinish_01_baseColor.png"
    },
    {
      "uri": "cocosfinish_01_occlusionRoughnessMetallic.png"
    },
    {
      "uri": "cocosfinish_01_normal.png"
    },
    {
      "uri": "cocosfinish_01_emissive.png"
    },
    {
      "uri": "cocosfinish_02_baseColor.png"
    },
    {
      "uri": "cocosfinish_02_occlusionRoughnessMetallic.png"
    },
    {
      "uri": "cocosfinish_02_normal.png"
    }
  ],
  "materials": [
    {
      "alphaMode": "BLEND",
      "emissiveFactor": [
        1.0,
        1.0,
        1.0
      ],
      "emissiveTexture": {
        "index": 3
      },
      "name": "cocosfinish_01",
      "normalTexture": {
        "index": 2
      },
      "occlusionTexture": {
        "index": 1
      },
      "pbrMetallicRoughness": {
        "baseColorTexture": {
          "index": 0
        },
        "metallicRoughnessTexture": {
          "index": 1
        }
      }
    },
    {
      "alphaMode": "BLEND",
      "name": "cocosfinish_02",
      "normalTexture": {
        "index": 6
      },
      "occlusionTexture": {
        "index": 5
      },
      "pbrMetallicRoughness": {
        "baseColorTexture": {
          "index": 4
        },
        "metallicRoughnessTexture": {
          "index": 5
        }
      }
    }
  ],
  "meshes": [
    {
      "name": "cocosfinish_01",
      "primitives": [
        {
          "attributes": {
            "NORMAL": 2,
            "POSITION": 1,
            "TEXCOORD_0": 3
          },
          "indices": 0,
          "material": 0,
          "mode": 4
        }
      ]
    },
    {
      "name": "cocosfinish_02",
      "primitives": [
        {
          "attributes": {
            "NORMAL": 6,
            "POSITION": 5,
            "TEXCOORD_0": 7
          },
          "indices": 4,
          "material": 1,
          "mode": 4
        }
      ]
    }
  ],
  "nodes": [
    {
      "children": [
        1,
        3
      ],
      "name": "root",
      "scale": [
        2.27983045578003,
        2.27983045578003,
        2.27983045578003
      ],
      "translation": [
        -0.000317692756652832,
        2.28023767471313,
        -0.0328719019889832
      ]
    },
    {
      "children": [
        2
      ],
      "name": "cocosfinish_01"
    },
    {
      "mesh": 0,
      "name": "cocosfinish_01"
    },
    {
      "children": [
        4
      ],
      "name": "cocosfinish_02"
    },
    {
      "mesh": 1,
      "name": "cocosfinish_02"
    }
  ],
  "samplers": [
    {
      "magFilter": 9729,
      "minFilter": 9985,
      "wrapS": 10497,
      "wrapT": 10497
    }
  ],
  "scene": 0,
  "scenes": [
    {
      "name": "Scene",
      "nodes": [
        0
      ]
    }
  ],
  "textures": [
    {
      "sampler": 0,
      "source": 0
    },
    {
      "sampler": 0,
      "source": 1
    },
    {
      "sampler": 0,
      "source": 2
    },
    {
      "sampler": 0,
      "source": 3
    },
    {
      "sampler": 0,
      "source": 4
    },
    {
      "sampler": 0,
      "source": 5
    },
    {
      "sampler": 0,
      "source": 6
    }
  ]
}