{
    "asset": {
        "generator": "FBX2glTF v0.9.7",
        "version": "2.0"
    },
    "scene": 0,
    "buffers": [
        {
            "byteLength": 72012,
            "uri": "buffer.bin"
        }
    ],
    "bufferViews": [
        {
            "buffer": 0,
            "byteLength": 388,
            "byteOffset": 0
        },
        {
            "buffer": 0,
            "byteLength": 1164,
            "byteOffset": 388
        },
        {
            "buffer": 0,
            "byteLength": 1552,
            "byteOffset": 1552
        },
        {
            "buffer": 0,
            "byteLength": 1164,
            "byteOffset": 3104
        },
        {
            "buffer": 0,
            "byteLength": 1552,
            "byteOffset": 4268
        },
        {
            "buffer": 0,
            "byteLength": 1552,
            "byteOffset": 5820
        },
        {
            "buffer": 0,
            "byteLength": 1164,
            "byteOffset": 7372
        },
        {
            "buffer": 0,
            "byteLength": 1552,
            "byteOffset": 8536
        },
        {
            "buffer": 0,
            "byteLength": 1164,
            "byteOffset": 10088
        },
        {
            "buffer": 0,
            "byteLength": 1552,
            "byteOffset": 11252
        },
        {
            "buffer": 0,
            "byteLength": 1164,
            "byteOffset": 12804
        },
        {
            "buffer": 0,
            "byteLength": 1552,
            "byteOffset": 13968
        },
        {
            "buffer": 0,
            "byteLength": 1164,
            "byteOffset": 15520
        },
        {
            "buffer": 0,
            "byteLength": 1164,
            "byteOffset": 16684
        },
        {
            "buffer": 0,
            "byteLength": 1552,
            "byteOffset": 17848
        },
        {
            "buffer": 0,
            "byteLength": 1164,
            "byteOffset": 19400
        },
        {
            "buffer": 0,
            "byteLength": 1164,
            "byteOffset": 20564
        },
        {
            "buffer": 0,
            "byteLength": 1552,
            "byteOffset": 21728
        },
        {
            "buffer": 0,
            "byteLength": 1164,
            "byteOffset": 23280
        },
        {
            "buffer": 0,
            "byteLength": 1552,
            "byteOffset": 24444
        },
        {
            "buffer": 0,
            "byteLength": 2328,
            "byteOffset": 25996,
            "target": 34963
        },
        {
            "buffer": 0,
            "byteLength": 9252,
            "byteOffset": 28324,
            "target": 34962
        },
        {
            "buffer": 0,
            "byteLength": 9252,
            "byteOffset": 37576,
            "target": 34962
        },
        {
            "buffer": 0,
            "byteLength": 6168,
            "byteOffset": 46828,
            "target": 34962
        },
        {
            "buffer": 0,
            "byteLength": 6168,
            "byteOffset": 52996,
            "target": 34962
        },
        {
            "buffer": 0,
            "byteLength": 12336,
            "byteOffset": 59164,
            "target": 34962
        },
        {
            "buffer": 0,
            "byteLength": 512,
            "byteOffset": 71500
        }
    ],
    "scenes": [
        {
            "name": "Root Scene",
            "nodes": [
                0
            ]
        }
    ],
    "accessors": [
        {
            "componentType": 5126,
            "type": "SCALAR",
            "count": 97,
            "bufferView": 0,
            "byteOffset": 0,
            "min": [
                0.0
            ],
            "max": [
                4.0
            ]
        },
        {
            "componentType": 5126,
            "type": "VEC3",
            "count": 97,
            "bufferView": 1,
            "byteOffset": 0
        },
        {
            "componentType": 5126,
            "type": "VEC4",
            "count": 97,
            "bufferView": 2,
            "byteOffset": 0
        },
        {
            "componentType": 5126,
            "type": "VEC3",
            "count": 97,
            "bufferView": 3,
            "byteOffset": 0
        },
        {
            "componentType": 5126,
            "type": "VEC4",
            "count": 97,
            "bufferView": 4,
            "byteOffset": 0
        },
        {
            "componentType": 5126,
            "type": "VEC4",
            "count": 97,
            "bufferView": 5,
            "byteOffset": 0
        },
        {
            "componentType": 5126,
            "type": "VEC3",
            "count": 97,
            "bufferView": 6,
            "byteOffset": 0
        },
        {
            "componentType": 5126,
            "type": "VEC4",
            "count": 97,
            "bufferView": 7,
            "byteOffset": 0
        },
        {
            "componentType": 5126,
            "type": "VEC3",
            "count": 97,
            "bufferView": 8,
            "byteOffset": 0
        },
        {
            "componentType": 5126,
            "type": "VEC4",
            "count": 97,
            "bufferView": 9,
            "byteOffset": 0
        },
        {
            "componentType": 5126,
            "type": "VEC3",
            "count": 97,
            "bufferView": 10,
            "byteOffset": 0
        },
        {
            "componentType": 5126,
            "type": "VEC4",
            "count": 97,
            "bufferView": 11,
            "byteOffset": 0
        },
        {
            "componentType": 5126,
            "type": "VEC3",
            "count": 97,
            "bufferView": 12,
            "byteOffset": 0
        },
        {
            "componentType": 5126,
            "type": "VEC3",
            "count": 97,
            "bufferView": 13,
            "byteOffset": 0
        },
        {
            "componentType": 5126,
            "type": "VEC4",
            "count": 97,
            "bufferView": 14,
            "byteOffset": 0
        },
        {
            "componentType": 5126,
            "type": "VEC3",
            "count": 97,
            "bufferView": 15,
            "byteOffset": 0
        },
        {
            "componentType": 5126,
            "type": "VEC3",
            "count": 97,
            "bufferView": 16,
            "byteOffset": 0
        },
        {
            "componentType": 5126,
            "type": "VEC4",
            "count": 97,
            "bufferView": 17,
            "byteOffset": 0
        },
        {
            "componentType": 5126,
            "type": "VEC3",
            "count": 97,
            "bufferView": 18,
            "byteOffset": 0
        },
        {
            "componentType": 5126,
            "type": "VEC4",
            "count": 97,
            "bufferView": 19,
            "byteOffset": 0
        },
        {
            "componentType": 5123,
            "type": "SCALAR",
            "count": 1164,
            "bufferView": 20,
            "byteOffset": 0
        },
        {
            "componentType": 5126,
            "type": "VEC3",
            "count": 771,
            "bufferView": 21,
            "byteOffset": 0,
            "min": [
                -0.474287182092667,
                -0.614468812942505,
                0.0025498962495476
            ],
            "max": [
                0.474050283432007,
                0.236367389559746,
                1.35674834251404
            ]
        },
        {
            "componentType": 5126,
            "type": "VEC3",
            "count": 771,
            "bufferView": 22,
            "byteOffset": 0
        },
        {
            "componentType": 5126,
            "type": "VEC2",
            "count": 771,
            "bufferView": 23,
            "byteOffset": 0
        },
        {
            "componentType": 5123,
            "type": "VEC4",
            "count": 771,
            "bufferView": 24,
            "byteOffset": 0
        },
        {
            "componentType": 5126,
            "type": "VEC4",
            "count": 771,
            "bufferView": 25,
            "byteOffset": 0
        },
        {
            "componentType": 5126,
            "type": "MAT4",
            "count": 8,
            "bufferView": 26,
            "byteOffset": 0
        }
    ],
    "images": [
        {
            "name": "贴图 #4",
            "uri": "data:image/png;base64,"
        }
    ],
    "samplers": [
        {}
    ],
    "textures": [
        {
            "name": "贴图 #4",
            "sampler": 0,
            "source": 0
        }
    ],
    "materials": [
        {
            "name": "Material #4",
            "alphaMode": "OPAQUE",
            "extras": {
                "fromFBX": {
                    "shadingModel": "Phong",
                    "isTruePBR": false
                }
            },
            "pbrMetallicRoughness": {
                "baseColorTexture": {
                    "index": 0,
                    "texCoord": 0
                },
                "baseColorFactor": [
                    1.0,
                    1.0,
                    1.0,
                    1.0
                ],
                "metallicFactor": 0.400000005960464,
                "roughnessFactor": 0.70710676908493
            }
        }
    ],
    "meshes": [
        {
            "name": "clown01",
            "primitives": [
                {
                    "material": 0,
                    "mode": 4,
                    "attributes": {
                        "JOINTS_0": 24,
                        "NORMAL": 22,
                        "POSITION": 21,
                        "TEXCOORD_0": 23,
                        "WEIGHTS_0": 25
                    },
                    "indices": 20
                }
            ]
        }
    ],
    "skins": [
        {
            "joints": [
                10,
                2,
                3,
                6,
                4,
                5,
                7,
                9
            ],
            "inverseBindMatrices": 26,
            "skeleton": 10
        }
    ],
    "animations": [
        {
            "name": "Take 001",
            "channels": [
                {
                    "sampler": 0,
                    "target": {
                        "node": 1,
                        "path": "translation"
                    }
                },
                {
                    "sampler": 1,
                    "target": {
                        "node": 1,
                        "path": "rotation"
                    }
                },
                {
                    "sampler": 2,
                    "target": {
                        "node": 2,
                        "path": "translation"
                    }
                },
                {
                    "sampler": 3,
                    "target": {
                        "node": 2,
                        "path": "rotation"
                    }
                },
                {
                    "sampler": 4,
                    "target": {
                        "node": 3,
                        "path": "rotation"
                    }
                },
                {
                    "sampler": 5,
                    "target": {
                        "node": 4,
                        "path": "translation"
                    }
                },
                {
                    "sampler": 6,
                    "target": {
                        "node": 4,
                        "path": "rotation"
                    }
                },
                {
                    "sampler": 7,
                    "target": {
                        "node": 5,
                        "path": "translation"
                    }
                },
                {
                    "sampler": 8,
                    "target": {
                        "node": 5,
                        "path": "rotation"
                    }
                },
                {
                    "sampler": 9,
                    "target": {
                        "node": 6,
                        "path": "translation"
                    }
                },
                {
                    "sampler": 10,
                    "target": {
                        "node": 6,
                        "path": "rotation"
                    }
                },
                {
                    "sampler": 11,
                    "target": {
                        "node": 6,
                        "path": "scale"
                    }
                },
                {
                    "sampler": 12,
                    "target": {
                        "node": 7,
                        "path": "translation"
                    }
                },
                {
                    "sampler": 13,
                    "target": {
                        "node": 7,
                        "path": "rotation"
                    }
                },
                {
                    "sampler": 14,
                    "target": {
                        "node": 7,
                        "path": "scale"
                    }
                },
                {
                    "sampler": 15,
                    "target": {
                        "node": 9,
                        "path": "translation"
                    }
                },
                {
                    "sampler": 16,
                    "target": {
                        "node": 9,
                        "path": "rotation"
                    }
                },
                {
                    "sampler": 17,
                    "target": {
                        "node": 10,
                        "path": "translation"
                    }
                },
                {
                    "sampler": 18,
                    "target": {
                        "node": 10,
                        "path": "rotation"
                    }
                }
            ],
            "samplers": [
                {
                    "input": 0,
                    "interpolation": "LINEAR",
                    "output": 1
                },
                {
                    "input": 0,
                    "interpolation": "LINEAR",
                    "output": 2
                },
                {
                    "input": 0,
                    "interpolation": "LINEAR",
                    "output": 3
                },
                {
                    "input": 0,
                    "interpolation": "LINEAR",
                    "output": 4
                },
                {
                    "input": 0,
                    "interpolation": "LINEAR",
                    "output": 5
                },
                {
                    "input": 0,
                    "interpolation": "LINEAR",
                    "output": 6
                },
                {
                    "input": 0,
                    "interpolation": "LINEAR",
                    "output": 7
                },
                {
                    "input": 0,
                    "interpolation": "LINEAR",
                    "output": 8
                },
                {
                    "input": 0,
                    "interpolation": "LINEAR",
                    "output": 9
                },
                {
                    "input": 0,
                    "interpolation": "LINEAR",
                    "output": 10
                },
                {
                    "input": 0,
                    "interpolation": "LINEAR",
                    "output": 11
                },
                {
                    "input": 0,
                    "interpolation": "LINEAR",
                    "output": 12
                },
                {
                    "input": 0,
                    "interpolation": "LINEAR",
                    "output": 13
                },
                {
                    "input": 0,
                    "interpolation": "LINEAR",
                    "output": 14
                },
                {
                    "input": 0,
                    "interpolation": "LINEAR",
                    "output": 15
                },
                {
                    "input": 0,
                    "interpolation": "LINEAR",
                    "output": 16
                },
                {
                    "input": 0,
                    "interpolation": "LINEAR",
                    "output": 17
                },
                {
                    "input": 0,
                    "interpolation": "LINEAR",
                    "output": 18
                },
                {
                    "input": 0,
                    "interpolation": "LINEAR",
                    "output": 19
                }
            ]
        }
    ],
    "nodes": [
        {
            "name": "RootNode",
            "translation": [
                0.0,
                0.0,
                0.0
            ],
            "rotation": [
                0.0,
                0.0,
                0.0,
                1.0
            ],
            "scale": [
                1.0,
                1.0,
                1.0
            ],
            "children": [
                1,
                8,
                9,
                10
            ]
        },
        {
            "name": "Dummy01",
            "translation": [
                0.0,
                1.10438847541809,
                5.05454131882743e-08
            ],
            "rotation": [
                8.14603424714733e-08,
                0.0,
                0.0,
                1.0
            ],
            "scale": [
                2.53999996185303,
                2.53999996185303,
                2.53999996185303
            ],
            "children": [
                2,
                4,
                5,
                6,
                7
            ]
        },
        {
            "name": "Body",
            "translation": [
                -0.000466376630356535,
                0.0555356591939926,
                -4.76836259366564e-09
            ],
            "rotation": [
                1.31472529574239e-06,
                5.89831131492247e-07,
                0.703774869441986,
                0.710423111915588
            ],
            "scale": [
                0.256809949874878,
                0.439815044403076,
                0.0870304778218269
            ],
            "children": [
                3
            ]
        },
        {
            "name": "head",
            "translation": [
                0.931041061878204,
                -1.62124635494365e-07,
                1.28417738665121e-08
            ],
            "rotation": [
                -7.869318324083e-06,
                -2.02333453103165e-07,
                -0.00134088529739529,
                0.999999105930328
            ],
            "scale": [
                1.24272096157074,
                1.03568971157074,
                1.0696634054184
            ]
        },
        {
            "name": "legRight",
            "translation": [
                -0.15381583571434,
                0.0330642685294151,
                -4.76836703455774e-09
            ],
            "rotation": [
                0.677501499652863,
                0.200899600982666,
                0.678742349147797,
                -0.199849724769592
            ],
            "scale": [
                0.184104666113853,
                0.347824722528458,
                0.0710852295160294
            ]
        },
        {
            "name": "legLeft",
            "translation": [
                0.150058135390282,
                0.0330642685294151,
                -1.43051099854574e-08
            ],
            "rotation": [
                0.635664343833923,
                0.310663938522339,
                0.635291218757629,
                -0.309554189443588
            ],
            "scale": [
                0.184104397892952,
                0.347825288772583,
                0.0710852593183517
            ]
        },
        {
            "name": "handRight",
            "translation": [
                -0.204364582896233,
                0.230531260371208,
                -1.75276539948754e-08
            ],
            "rotation": [
                0.0277030970901251,
                0.00572543684393167,
                0.984518468379974,
                -0.17298312485218
            ],
            "scale": [
                0.184000566601753,
                0.347843855619431,
                0.331444889307022
            ]
        },
        {
            "name": "handLeft",
            "translation": [
                0.203628897666931,
                0.230118587613106,
                0.00014723715139553
            ],
            "rotation": [
                -0.00294327270239592,
                -0.00248627993278205,
                -0.152414903044701,
                0.98830908536911
            ],
            "scale": [
                0.1843381524086,
                0.347929865121841,
                0.375158786773682
            ]
        },
        {
            "name": "clown01",
            "translation": [
                0.0,
                0.0,
                1.75669923052624e-09
            ],
            "rotation": [
                -0.70710676908493,
                -0.0,
                0.0,
                0.70710676908493
            ],
            "scale": [
                2.53999996185303,
                2.53999996185303,
                2.53999996185303
            ],
            "mesh": 0,
            "skin": 0
        },
        {
            "name": "ball01",
            "translation": [
                -1.50999462933399e-10,
                0.56072860956192,
                2.45102267371067e-08
            ],
            "rotation": [
                0.000875132333021611,
                -0.707106292247772,
                -0.000875101250130683,
                0.707106173038483
            ],
            "scale": [
                1.02010083198547,
                1.02010083198547,
                1.02010083198547
            ]
        },
        {
            "name": "ball02",
            "translation": [
                -1.50999462933399e-10,
                2.0,
                8.93503582233279e-08
            ],
            "rotation": [
                0.000875132333021611,
                -0.707106292247772,
                -0.000875101250130683,
                0.707106173038483
            ],
            "scale": [
                1.02010083198547,
                1.02010083198547,
                1.02010083198547
            ]
        }
    ]
}