{
    "asset": {
        "generator": "FBX2glTF v0.9.7",
        "version": "2.0"
    },
    "scene": 0,
    "buffers": [
        {
            "byteLength": 40120,
            "uri": "buffer.bin"
        }
    ],
    "bufferViews": [
        {
            "buffer": 0,
            "byteLength": 348,
            "byteOffset": 0
        },
        {
            "buffer": 0,
            "byteLength": 1044,
            "byteOffset": 348
        },
        {
            "buffer": 0,
            "byteLength": 1392,
            "byteOffset": 1392
        },
        {
            "buffer": 0,
            "byteLength": 1044,
            "byteOffset": 2784
        },
        {
            "buffer": 0,
            "byteLength": 1392,
            "byteOffset": 3828
        },
        {
            "buffer": 0,
            "byteLength": 1392,
            "byteOffset": 5220
        },
        {
            "buffer": 0,
            "byteLength": 1044,
            "byteOffset": 6612
        },
        {
            "buffer": 0,
            "byteLength": 1392,
            "byteOffset": 7656
        },
        {
            "buffer": 0,
            "byteLength": 1044,
            "byteOffset": 9048
        },
        {
            "buffer": 0,
            "byteLength": 1392,
            "byteOffset": 10092
        },
        {
            "buffer": 0,
            "byteLength": 1044,
            "byteOffset": 11484
        },
        {
            "buffer": 0,
            "byteLength": 1392,
            "byteOffset": 12528
        },
        {
            "buffer": 0,
            "byteLength": 1044,
            "byteOffset": 13920
        },
        {
            "buffer": 0,
            "byteLength": 1044,
            "byteOffset": 14964
        },
        {
            "buffer": 0,
            "byteLength": 1392,
            "byteOffset": 16008
        },
        {
            "buffer": 0,
            "byteLength": 1044,
            "byteOffset": 17400
        },
        {
            "buffer": 0,
            "byteLength": 1524,
            "byteOffset": 18444,
            "target": 34963
        },
        {
            "buffer": 0,
            "byteLength": 4236,
            "byteOffset": 19968,
            "target": 34962
        },
        {
            "buffer": 0,
            "byteLength": 4236,
            "byteOffset": 24204,
            "target": 34962
        },
        {
            "buffer": 0,
            "byteLength": 2824,
            "byteOffset": 28440,
            "target": 34962
        },
        {
            "buffer": 0,
            "byteLength": 2824,
            "byteOffset": 31264,
            "target": 34962
        },
        {
            "buffer": 0,
            "byteLength": 5648,
            "byteOffset": 34088,
            "target": 34962
        },
        {
            "buffer": 0,
            "byteLength": 384,
            "byteOffset": 39736
        }
    ],
    "scenes": [
        {
            "name": "Root Scene",
            "nodes": [
                0
            ]
        }
    ],
    "accessors": [
        {
            "componentType": 5126,
            "type": "SCALAR",
            "count": 87,
            "bufferView": 0,
            "byteOffset": 0,
            "min": [
                0.0
            ],
            "max": [
                3.58333325386047
            ]
        },
        {
            "componentType": 5126,
            "type": "VEC3",
            "count": 87,
            "bufferView": 1,
            "byteOffset": 0
        },
        {
            "componentType": 5126,
            "type": "VEC4",
            "count": 87,
            "bufferView": 2,
            "byteOffset": 0
        },
        {
            "componentType": 5126,
            "type": "VEC3",
            "count": 87,
            "bufferView": 3,
            "byteOffset": 0
        },
        {
            "componentType": 5126,
            "type": "VEC4",
            "count": 87,
            "bufferView": 4,
            "byteOffset": 0
        },
        {
            "componentType": 5126,
            "type": "VEC4",
            "count": 87,
            "bufferView": 5,
            "byteOffset": 0
        },
        {
            "componentType": 5126,
            "type": "VEC3",
            "count": 87,
            "bufferView": 6,
            "byteOffset": 0
        },
        {
            "componentType": 5126,
            "type": "VEC4",
            "count": 87,
            "bufferView": 7,
            "byteOffset": 0
        },
        {
            "componentType": 5126,
            "type": "VEC3",
            "count": 87,
            "bufferView": 8,
            "byteOffset": 0
        },
        {
            "componentType": 5126,
            "type": "VEC4",
            "count": 87,
            "bufferView": 9,
            "byteOffset": 0
        },
        {
            "componentType": 5126,
            "type": "VEC3",
            "count": 87,
            "bufferView": 10,
            "byteOffset": 0
        },
        {
            "componentType": 5126,
            "type": "VEC4",
            "count": 87,
            "bufferView": 11,
            "byteOffset": 0
        },
        {
            "componentType": 5126,
            "type": "VEC3",
            "count": 87,
            "bufferView": 12,
            "byteOffset": 0
        },
        {
            "componentType": 5126,
            "type": "VEC3",
            "count": 87,
            "bufferView": 13,
            "byteOffset": 0
        },
        {
            "componentType": 5126,
            "type": "VEC4",
            "count": 87,
            "bufferView": 14,
            "byteOffset": 0
        },
        {
            "componentType": 5126,
            "type": "VEC3",
            "count": 87,
            "bufferView": 15,
            "byteOffset": 0
        },
        {
            "componentType": 5123,
            "type": "SCALAR",
            "count": 762,
            "bufferView": 16,
            "byteOffset": 0
        },
        {
            "componentType": 5126,
            "type": "VEC3",
            "count": 353,
            "bufferView": 17,
            "byteOffset": 0,
            "min": [
                -0.340078473091125,
                -0.261833637952805,
                -4.13894622397493e-06
            ],
            "max": [
                0.340089023113251,
                0.261833041906357,
                0.918323040008545
            ]
        },
        {
            "componentType": 5126,
            "type": "VEC3",
            "count": 353,
            "bufferView": 18,
            "byteOffset": 0
        },
        {
            "componentType": 5126,
            "type": "VEC2",
            "count": 353,
            "bufferView": 19,
            "byteOffset": 0
        },
        {
            "componentType": 5123,
            "type": "VEC4",
            "count": 353,
            "bufferView": 20,
            "byteOffset": 0
        },
        {
            "componentType": 5126,
            "type": "VEC4",
            "count": 353,
            "bufferView": 21,
            "byteOffset": 0
        },
        {
            "componentType": 5126,
            "type": "MAT4",
            "count": 6,
            "bufferView": 22,
            "byteOffset": 0
        }
    ],
    "images": [
        {
            "name": "贴图 #2",
            "uri": "data:image/png;base64,"
        }
    ],
    "samplers": [
        {}
    ],
    "textures": [
        {
            "name": "贴图 #2",
            "sampler": 0,
            "source": 0
        }
    ],
    "materials": [
        {
            "name": "Material #2",
            "alphaMode": "OPAQUE",
            "extras": {
                "fromFBX": {
                    "shadingModel": "Phong",
                    "isTruePBR": false
                }
            },
            "pbrMetallicRoughness": {
                "baseColorTexture": {
                    "index": 0,
                    "texCoord": 0
                },
                "baseColorFactor": [
                    1.0,
                    1.0,
                    1.0,
                    1.0
                ],
                "metallicFactor": 0.400000005960464,
                "roughnessFactor": 0.70710676908493
            }
        }
    ],
    "meshes": [
        {
            "name": "altman01",
            "primitives": [
                {
                    "material": 0,
                    "mode": 4,
                    "attributes": {
                        "JOINTS_0": 20,
                        "NORMAL": 18,
                        "POSITION": 17,
                        "TEXCOORD_0": 19,
                        "WEIGHTS_0": 21
                    },
                    "indices": 16
                }
            ]
        }
    ],
    "skins": [
        {
            "joints": [
                3,
                4,
                7,
                5,
                6,
                8
            ],
            "inverseBindMatrices": 22,
            "skeleton": 3
        }
    ],
    "animations": [
        {
            "name": "Take 001",
            "channels": [
                {
                    "sampler": 0,
                    "target": {
                        "node": 2,
                        "path": "translation"
                    }
                },
                {
                    "sampler": 1,
                    "target": {
                        "node": 2,
                        "path": "rotation"
                    }
                },
                {
                    "sampler": 2,
                    "target": {
                        "node": 3,
                        "path": "translation"
                    }
                },
                {
                    "sampler": 3,
                    "target": {
                        "node": 3,
                        "path": "rotation"
                    }
                },
                {
                    "sampler": 4,
                    "target": {
                        "node": 4,
                        "path": "rotation"
                    }
                },
                {
                    "sampler": 5,
                    "target": {
                        "node": 5,
                        "path": "translation"
                    }
                },
                {
                    "sampler": 6,
                    "target": {
                        "node": 5,
                        "path": "rotation"
                    }
                },
                {
                    "sampler": 7,
                    "target": {
                        "node": 6,
                        "path": "translation"
                    }
                },
                {
                    "sampler": 8,
                    "target": {
                        "node": 6,
                        "path": "rotation"
                    }
                },
                {
                    "sampler": 9,
                    "target": {
                        "node": 7,
                        "path": "translation"
                    }
                },
                {
                    "sampler": 10,
                    "target": {
                        "node": 7,
                        "path": "rotation"
                    }
                },
                {
                    "sampler": 11,
                    "target": {
                        "node": 7,
                        "path": "scale"
                    }
                },
                {
                    "sampler": 12,
                    "target": {
                        "node": 8,
                        "path": "translation"
                    }
                },
                {
                    "sampler": 13,
                    "target": {
                        "node": 8,
                        "path": "rotation"
                    }
                },
                {
                    "sampler": 14,
                    "target": {
                        "node": 8,
                        "path": "scale"
                    }
                }
            ],
            "samplers": [
                {
                    "input": 0,
                    "interpolation": "LINEAR",
                    "output": 1
                },
                {
                    "input": 0,
                    "interpolation": "LINEAR",
                    "output": 2
                },
                {
                    "input": 0,
                    "interpolation": "LINEAR",
                    "output": 3
                },
                {
                    "input": 0,
                    "interpolation": "LINEAR",
                    "output": 4
                },
                {
                    "input": 0,
                    "interpolation": "LINEAR",
                    "output": 5
                },
                {
                    "input": 0,
                    "interpolation": "LINEAR",
                    "output": 6
                },
                {
                    "input": 0,
                    "interpolation": "LINEAR",
                    "output": 7
                },
                {
                    "input": 0,
                    "interpolation": "LINEAR",
                    "output": 8
                },
                {
                    "input": 0,
                    "interpolation": "LINEAR",
                    "output": 9
                },
                {
                    "input": 0,
                    "interpolation": "LINEAR",
                    "output": 10
                },
                {
                    "input": 0,
                    "interpolation": "LINEAR",
                    "output": 11
                },
                {
                    "input": 0,
                    "interpolation": "LINEAR",
                    "output": 12
                },
                {
                    "input": 0,
                    "interpolation": "LINEAR",
                    "output": 13
                },
                {
                    "input": 0,
                    "interpolation": "LINEAR",
                    "output": 14
                },
                {
                    "input": 0,
                    "interpolation": "LINEAR",
                    "output": 15
                }
            ]
        }
    ],
    "nodes": [
        {
            "name": "RootNode",
            "translation": [
                0.0,
                0.0,
                0.0
            ],
            "rotation": [
                0.0,
                0.0,
                0.0,
                1.0
            ],
            "scale": [
                1.0,
                1.0,
                1.0
            ],
            "children": [
                1,
                2
            ]
        },
        {
            "name": "altman01",
            "translation": [
                0.0,
                0.0,
                0.0
            ],
            "rotation": [
                -0.70710676908493,
                -0.0,
                0.0,
                0.70710676908493
            ],
            "scale": [
                2.53999996185303,
                2.53999996185303,
                2.53999996185303
            ],
            "mesh": 0,
            "skin": 0
        },
        {
            "name": "Dummy01",
            "translation": [
                0.0,
                4.31247441140831e-32,
                2.27106511374586e-09
            ],
            "rotation": [
                8.14603424714733e-08,
                0.0,
                0.0,
                1.0
            ],
            "scale": [
                2.53999996185303,
                2.53999996185303,
                2.53999996185303
            ],
            "children": [
                3,
                5,
                6,
                7,
                8
            ]
        },
        {
            "name": "Body",
            "translation": [
                -0.000466376630356535,
                0.0555356666445732,
                -4.76837147544984e-09
            ],
            "rotation": [
                1.31472529574239e-06,
                5.89831131492247e-07,
                0.703774869441986,
                0.710423111915588
            ],
            "scale": [
                0.256809949874878,
                0.439815044403076,
                0.0870304778218269
            ],
            "children": [
                4
            ]
        },
        {
            "name": "head",
            "translation": [
                0.931041061878204,
                -1.62124635494365e-07,
                1.28416282052513e-08
            ],
            "rotation": [
                -7.869318324083e-06,
                -2.02333453103165e-07,
                -0.00134088529739529,
                0.999999105930328
            ],
            "scale": [
                1.24272096157074,
                1.03568971157074,
                1.0696634054184
            ]
        },
        {
            "name": "legRight",
            "translation": [
                -0.15381583571434,
                0.0330642610788345,
                -4.76837147544984e-09
            ],
            "rotation": [
                0.677501499652863,
                0.200899600982666,
                0.678742349147797,
                -0.199849724769592
            ],
            "scale": [
                0.184104666113853,
                0.347824722528458,
                0.0710852295160294
            ]
        },
        {
            "name": "legLeft",
            "translation": [
                0.150058135390282,
                0.0330642610788345,
                -1.43051144263495e-08
            ],
            "rotation": [
                0.635664343833923,
                0.310663938522339,
                0.635291218757629,
                -0.309554189443588
            ],
            "scale": [
                0.184104397892952,
                0.347825288772583,
                0.0710852593183517
            ]
        },
        {
            "name": "handRight",
            "translation": [
                -0.204364582896233,
                0.240019470453262,
                -1.90734859017994e-08
            ],
            "rotation": [
                -0.00043949464452453,
                -2.82325254374882e-05,
                0.984926223754883,
                -0.172974288463593
            ],
            "scale": [
                0.184104412794113,
                0.347825288772583,
                0.07108523696661
            ]
        },
        {
            "name": "handLeft",
            "translation": [
                0.203091412782669,
                0.240019470453262,
                -1.90734859017994e-08
            ],
            "rotation": [
                -1.00633706097142e-05,
                -0.000333787582349032,
                -0.173974245786667,
                0.984750151634216
            ],
            "scale": [
                0.184104338288307,
                0.347825139760971,
                0.0710852667689323
            ]
        }
    ]
}